HIERARCHY
ROOT hip
{
  OFFSET 5.51535 103.731 -2.80141
  CHANNELS 6 Xposition Yposition Zposition Zrotation Xrotation Yrotation
  JOINT abdomen
  {
    OFFSET 0 -1.186 -1.5018
    CHANNELS 6 Xposition Yposition Zposition Zrotation Xrotation Yrotation
    JOINT abdomen2
    {
      OFFSET 0 9.964 0.2134
      CHANNELS 6 Xposition Yposition Zposition Zrotation Xrotation Yrotation
      JOINT chest
      {
        OFFSET 0 13.134 -3.2573
        CHANNELS 6 Xposition Yposition Zposition Zrotation Xrotation Yrotation
        JOINT neck
        {
          OFFSET 0 20.686 -1.6905
          CHANNELS 6 Xposition Yposition Zposition Zrotation Xrotation Yrotation
          JOINT head
          {
            OFFSET 0 7.23801 -0.1237
            CHANNELS 6 Xposition Yposition Zposition Zrotation Xrotation Yrotation
            End Site
            {
              OFFSET 0 0 0
            }
          }
        }
        JOINT lCollar
        {
          OFFSET 1.7069 20.075 5.0056
          CHANNELS 6 Xposition Yposition Zposition Zrotation Xrotation Yrotation
          JOINT lShldr
          {
            OFFSET 13.6458 -0.0470195 -4.849
            CHANNELS 6 Xposition Yposition Zposition Zrotation Xrotation Yrotation
            JOINT lForeArm
            {
              OFFSET 28.3255 -0.97589 2.2888
              CHANNELS 6 Xposition Yposition Zposition Zrotation Xrotation Yrotation
              JOINT lHand
              {
                OFFSET 22.1583 -0.529998 10.8316
                CHANNELS 6 Xposition Yposition Zposition Zrotation Xrotation Yrotation
                JOINT lThumb1
                {
                  OFFSET 0.786 0.111997 2.5817
                  CHANNELS 6 Xposition Yposition Zposition Zrotation Xrotation Yrotation
                  JOINT lThumb2
                  {
                    OFFSET 0.360097 -0.877999 4.2331
                    CHANNELS 6 Xposition Yposition Zposition Zrotation Xrotation Yrotation
                    JOINT lThumb2_End
                    {
                      OFFSET 1.8127 -1.21601 2.2227
                      CHANNELS 6 Xposition Yposition Zposition Zrotation Xrotation Yrotation
                      End Site
                      {
                        OFFSET 0.0180981 -0.012195 0.0222007
                      }
                    }
                  }
                }
                JOINT lCarpal1
                {
                  OFFSET 0.9571 1.114 1.7695
                  CHANNELS 6 Xposition Yposition Zposition Zrotation Xrotation Yrotation
                  JOINT lIndex1
                  {
                    OFFSET 4.12461 0.486992 4.1451
                    CHANNELS 6 Xposition Yposition Zposition Zrotation Xrotation Yrotation
                    JOINT lIndex2
                    {
                      OFFSET 3.4052 -1.45401 2.7682
                      CHANNELS 6 Xposition Yposition Zposition Zrotation Xrotation Yrotation
                      JOINT lIndex2_End
                      {
                        OFFSET 1.45309 -1.79499 1.2713
                        CHANNELS 6 Xposition Yposition Zposition Zrotation Xrotation Yrotation
                        End Site
                        {
                          OFFSET 0.0144979 -0.0179083 0.0126995
                        }
                      }
                    }
                  }
                  JOINT lMid1
                  {
                    OFFSET 5.6954 0.209987 2.1184
                    CHANNELS 6 Xposition Yposition Zposition Zrotation Xrotation Yrotation
                    JOINT lMid2
                    {
                      OFFSET 3.9766 -1.53999 2.3863
                      CHANNELS 6 Xposition Yposition Zposition Zrotation Xrotation Yrotation
                      JOINT lMid2_End
                      {
                        OFFSET 1.4042 -1.926 1.125
                        CHANNELS 6 Xposition Yposition Zposition Zrotation Xrotation Yrotation
                        End Site
                        {
                          OFFSET 0.013999 -0.0193044 0.011301
                        }
                      }
                    }
                  }
                }
                JOINT lCarpal2
                {
                  OFFSET 2.0956 0.66 -0.3894
                  CHANNELS 6 Xposition Yposition Zposition Zrotation Xrotation Yrotation
                  JOINT lRing1
                  {
                    OFFSET 5.0395 -0.090013 2.4971
                    CHANNELS 6 Xposition Yposition Zposition Zrotation Xrotation Yrotation
                    JOINT lRing2
                    {
                      OFFSET 3.7921 -1.55199 1.4806
                      CHANNELS 6 Xposition Yposition Zposition Zrotation Xrotation Yrotation
                      JOINT lRing2_End
                      {
                        OFFSET 1.4655 -1.808 0.9609
                        CHANNELS 6 Xposition Yposition Zposition Zrotation Xrotation Yrotation
                        End Site
                        {
                          OFFSET 0.0147015 -0.0181014 0.00959957
                        }
                      }
                    }
                  }
                  JOINT lPinky1
                  {
                    OFFSET 4.9141 -1.269 0.3591
                    CHANNELS 6 Xposition Yposition Zposition Zrotation Xrotation Yrotation
                    JOINT lPinky2
                    {
                      OFFSET 3.1477 -1.685 0.8462
                      CHANNELS 6 Xposition Yposition Zposition Zrotation Xrotation Yrotation
                      JOINT lPinky2_End
                      {
                        OFFSET 0.805498 -1.58501 0.795499
                        CHANNELS 6 Xposition Yposition Zposition Zrotation Xrotation Yrotation
                        End Site
                        {
                          OFFSET 0.00809703 -0.0157944 0.00799848
                        }
                      }
                    }
                  }
                }
              }
            }
          }
        }
        JOINT rCollar
        {
          OFFSET -1.7069 20.075 5.0056
          CHANNELS 6 Xposition Yposition Zposition Zrotation Xrotation Yrotation
          JOINT rShldr
          {
            OFFSET -13.6458 -0.0470107 -4.849
            CHANNELS 6 Xposition Yposition Zposition Zrotation Xrotation Yrotation
            JOINT rForeArm
            {
              OFFSET -28.3255 -0.975895 2.2888
              CHANNELS 6 Xposition Yposition Zposition Zrotation Xrotation Yrotation
              JOINT rHand
              {
                OFFSET -22.1583 -0.530007 10.8316
                CHANNELS 6 Xposition Yposition Zposition Zrotation Xrotation Yrotation
                JOINT rThumb1
                {
                  OFFSET -0.785997 0.112005 2.5817
                  CHANNELS 6 Xposition Yposition Zposition Zrotation Xrotation Yrotation
                  JOINT rThumb2
                  {
                    OFFSET -0.360106 -0.877994 4.2331
                    CHANNELS 6 Xposition Yposition Zposition Zrotation Xrotation Yrotation
                    JOINT rThumb2_End
                    {
                      OFFSET -1.8127 -1.216 2.2227
                      CHANNELS 6 Xposition Yposition Zposition Zrotation Xrotation Yrotation
                      End Site
                      {
                        OFFSET -0.0180972 -0.0121973 0.0222005
                      }
                    }
                  }
                }
                JOINT rCarpal1
                {
                  OFFSET -0.9571 1.114 1.7695
                  CHANNELS 6 Xposition Yposition Zposition Zrotation Xrotation Yrotation
                  JOINT rIndex1
                  {
                    OFFSET -4.1246 0.487011 4.1451
                    CHANNELS 6 Xposition Yposition Zposition Zrotation Xrotation Yrotation
                    JOINT rIndex2
                    {
                      OFFSET -3.4052 -1.45401 2.7682
                      CHANNELS 6 Xposition Yposition Zposition Zrotation Xrotation Yrotation
                      JOINT rIndex2_End
                      {
                        OFFSET -1.4531 -1.795 1.2713
                        CHANNELS 6 Xposition Yposition Zposition Zrotation Xrotation Yrotation
                        End Site
                        {
                          OFFSET -0.0145077 -0.0180048 0.0127017
                        }
                      }
                    }
                  }
                  JOINT rMid1
                  {
                    OFFSET -5.6954 0.210002 2.1184
                    CHANNELS 6 Xposition Yposition Zposition Zrotation Xrotation Yrotation
                    JOINT rMid2
                    {
                      OFFSET -3.9766 -1.54 2.3863
                      CHANNELS 6 Xposition Yposition Zposition Zrotation Xrotation Yrotation
                      JOINT rMid2_End
                      {
                        OFFSET -1.4042 -1.926 1.125
                        CHANNELS 6 Xposition Yposition Zposition Zrotation Xrotation Yrotation
                        End Site
                        {
                          OFFSET -0.0139948 -0.0192916 0.0112994
                        }
                      }
                    }
                  }
                }
                JOINT rCarpal2
                {
                  OFFSET -2.0956 0.66 -0.3894
                  CHANNELS 6 Xposition Yposition Zposition Zrotation Xrotation Yrotation
                  JOINT rRing1
                  {
                    OFFSET -5.03951 -0.0899879 2.4971
                    CHANNELS 6 Xposition Yposition Zposition Zrotation Xrotation Yrotation
                    JOINT rRing2
                    {
                      OFFSET -3.7921 -1.55201 1.4806
                      CHANNELS 6 Xposition Yposition Zposition Zrotation Xrotation Yrotation
                      JOINT rRing2_End
                      {
                        OFFSET -1.4655 -1.808 0.960901
                        CHANNELS 6 Xposition Yposition Zposition Zrotation Xrotation Yrotation
                        End Site
                        {
                          OFFSET -0.0146934 -0.0180999 0.00959832
                        }
                      }
                    }
                  }
                  JOINT rPinky1
                  {
                    OFFSET -4.91411 -1.26899 0.359202
                    CHANNELS 6 Xposition Yposition Zposition Zrotation Xrotation Yrotation
                    JOINT rPinky2
                    {
                      OFFSET -3.14769 -1.68501 0.846199
                      CHANNELS 6 Xposition Yposition Zposition Zrotation Xrotation Yrotation
                      JOINT rPinky2_End
                      {
                        OFFSET -0.805498 -1.585 0.7955
                        CHANNELS 6 Xposition Yposition Zposition Zrotation Xrotation Yrotation
                        End Site
                        {
                          OFFSET -0.00810035 -0.0158035 0.00800029
                        }
                      }
                    }
                  }
                }
              }
            }
          }
        }
      }
    }
  }
  JOINT lThigh
  {
    OFFSET 8.367 -8.2066 0.5982
    CHANNELS 6 Xposition Yposition Zposition Zrotation Xrotation Yrotation
    JOINT lShin
    {
      OFFSET 2.1923 -43.463 -0.4932
      CHANNELS 6 Xposition Yposition Zposition Zrotation Xrotation Yrotation
      JOINT lFoot
      {
        OFFSET 0.733301 -45.8593 -2.6451
        CHANNELS 6 Xposition Yposition Zposition Zrotation Xrotation Yrotation
        End Site
        {
          OFFSET 2.6618 -4.2699 12.3931
        }
      }
    }
  }
  JOINT rThigh
  {
    OFFSET -8.367 -8.2066 0.5982
    CHANNELS 6 Xposition Yposition Zposition Zrotation Xrotation Yrotation
    JOINT rShin
    {
      OFFSET -2.1923 -43.463 -0.4931
      CHANNELS 6 Xposition Yposition Zposition Zrotation Xrotation Yrotation
      JOINT rFoot
      {
        OFFSET -0.733299 -45.8593 -2.6451
        CHANNELS 6 Xposition Yposition Zposition Zrotation Xrotation Yrotation
        End Site
        {
          OFFSET -2.6618 -4.2699 12.3931
        }
      }
    }
  }
}
MOTION
Frames:	4
Frame Time:	0.0333333
-40.089 143.938 0.33601 33.8407 -12.4701 -34.8072 -2.05941e-006 -1.18599 -1.50181 -5.09006 -1.48188 11.3164 -4.18147e-007 9.964 0.213401 -9.79851 -3.92769 22.4763 3.27277e-006 13.134 -3.2573 -9.79849 -3.92769 22.4763 1.30729e-005 20.6861 -1.69053 2.91147 -15.2927 30.3179 8.34676e-006 7.23801 -0.123713 7.88569 -1.3836 14.3851 1.7069 20.075 5.0056 30.0444 0.468265 18.5811 13.6458 -0.0470085 -4.849 -34.3205 -18.9108 10.078 28.3255 -0.975892 2.28881 -43.3824 20.4451 -99.9498 22.1583 -0.529986 10.8316 -64.6988 -60.8144 -38.413 0.786003 0.111997 2.5817 3.07395 2.126 10.582 0.360097 -0.877997 4.23309 -18.7139 17.6682 -6.99776 1.8127 -1.21601 2.2227 2.22224 0.347749 4.08892 0.9571 1.114 1.7695 -3.18055e-015 0 -3.18055e-015 4.1246 0.486993 4.1451 -3.61821 3.2012 16.3936 3.4052 -1.454 2.76819 -2.05357 0.892322 0.853224 1.4531 -1.79499 1.2713 -37.475 10.1425 18.5049 5.6954 0.209989 2.1184 -11.1934 8.01659 6.68713 3.9766 -1.53999 2.3863 -15.0213 6.32936 6.94715 1.4042 -1.926 1.125 -11.3333 4.97931 5.12473 2.0956 0.66 -0.3894 -3.18055e-015 0 -3.18055e-015 5.0395 -0.0900136 2.4971 -10.4406 4.4498 4.77595 3.7921 -1.55199 1.4806 -14.3544 6.51538 7.46287 1.4655 -1.808 0.960905 -10.7393 5.09185 5.47531 4.9141 -1.269 0.359106 -11.2801 4.5139 3.71459 3.1477 -1.685 0.846201 -12.1888 6.12247 6.2184 0.805498 -1.58501 0.795502 -10.8855 5.55155 5.51061 -1.7069 20.075 5.0056 -20.7601 -1.02785 17.2636 -13.6458 -0.0470107 -4.849 59.964 22.1602 68.0036 -28.3255 -0.975884 2.2888 26.3098 20.5581 58.0774 -22.1583 -0.530007 10.8316 41.2032 -31.7655 16.7357 -0.786 0.112005 2.58171 4.46518 13.0516 2.2479 -0.360105 -0.877993 4.2331 1.74791 -1.38211 5.14006 -1.8127 -1.216 2.22269 1.91605 -1.50215 5.6184 -0.9571 1.114 1.7695 -8.82781e-032 1.59028e-015 3.18055e-015 -4.12461 0.487011 4.1451 -10.9398 -1.38415 5.79289 -3.4052 -1.45401 2.76819 -6.97133 -2.38682 0.837108 -1.4531 -1.795 1.2713 -1.07321 -0.359736 0.147243 -5.6954 0.210002 2.1184 -0.277725 3.22091 -0.265483 -3.9766 -1.54 2.3863 7.12907 2.60657 -1.13961 -1.4042 -1.926 1.12501 -5.81039 -2.22936 0.687498 -2.0956 0.66 -0.3894 -8.82781e-032 1.59028e-015 3.18055e-015 -5.03951 -0.0899875 2.4971 0.204371 1.3352 -4.43643 -3.7921 -1.55201 1.4806 9.16379 3.63138 -1.93673 -1.4655 -1.808 0.960898 -3.59703 -1.51619 0.602874 -4.91411 -1.26899 0.359197 6.95466 0.747577 -12.4692 -3.1477 -1.68501 0.846193 -0.934341 -0.41865 0.1534 -0.805498 -1.585 0.795503 -3.34468 -1.51094 0.518171 8.367 -8.2066 0.598205 9.56225 8.07501 -31.3911 2.19229 -43.463 -0.493189 0.0614865 2.86043 0.311052 0.733276 -45.8593 -2.64508 -1.83503 14.172 -4.70626 -8.367 -8.2066 0.598199 15.8151 53.2102 -3.72804 -2.19227 -43.463 -0.493194 -2.65345 -2.60157 1.56324 -0.733289 -45.8593 -2.6451 8.73847 7.17135 -17.6772 
-39.8961 144.036 1.76363 35.5609 -7.34606 -28.2268 -4.29226e-006 -1.186 -1.5018 -5.36003 -2.19342 10.8377 -2.14347e-006 9.96399 0.2134 -10.2277 -5.34649 21.4577 1.0538e-007 13.134 -3.2573 -10.2277 -5.34649 21.4577 -6.69826e-006 20.6861 -1.69053 3.06593 -14.8088 29.8569 1.17265e-005 7.23801 -0.12371 7.3713 -0.230408 14.1376 1.7069 20.075 5.0056 29.638 0.383666 17.7368 13.6458 -0.0470116 -4.84901 -34.4984 -19.6649 8.46327 28.3255 -0.975895 2.2888 -43.2841 20.4676 -101.123 22.1583 -0.529993 10.8316 -66.3357 -62.0663 -38.1143 0.786004 0.111997 2.5817 3.0739 2.12597 10.582 0.360097 -0.877998 4.2331 -18.7139 17.6682 -6.99776 1.8127 -1.21601 2.2227 2.22224 0.347723 4.08893 0.9571 1.114 1.7695 -8.82781e-032 -1.59028e-015 -3.18055e-015 4.12461 0.486994 4.1451 -3.61814 3.20133 16.3937 3.4052 -1.454 2.76819 -2.05346 0.892504 0.853167 1.4531 -1.79499 1.2713 -37.475 10.1425 18.5049 5.6954 0.209986 2.1184 -11.1934 8.01656 6.68712 3.9766 -1.53999 2.38631 -15.0213 6.32934 6.94715 1.4042 -1.926 1.125 -11.3333 4.97927 5.12476 2.0956 0.66 -0.3894 -8.82781e-032 -1.59028e-015 -3.18055e-015 5.0395 -0.0900136 2.4971 -10.4406 4.4498 4.77595 3.7921 -1.55199 1.4806 -14.3545 6.51539 7.46288 1.4655 -1.808 0.960901 -10.7393 5.09182 5.47534 4.9141 -1.269 0.359097 -11.2801 4.51388 3.7146 3.1477 -1.685 0.8462 -12.1888 6.12247 6.21839 0.805499 -1.58501 0.795499 -10.8857 5.55149 5.51056 -1.7069 20.075 5.0056 -25.1952 -0.707935 12.9682 -13.6458 -0.0470147 -4.849 57.6695 17.9139 68.8201 -28.3255 -0.975895 2.2888 24.5053 14.281 61.1525 -22.1583 -0.530016 10.8316 44.5151 -25.1954 13.0338 -0.785998 0.112007 2.58171 4.45916 13.0585 2.25337 -0.360104 -0.87799 4.23311 1.7482 -1.38231 5.14107 -1.8127 -1.216 2.22269 1.91605 -1.50214 5.61841 -0.9571 1.114 1.7695 6.36111e-015 0 -4.77083e-015 -4.12461 0.487011 4.1451 -10.9398 -1.38413 5.79289 -3.4052 -1.45401 2.7682 -6.97133 -2.38682 0.837109 -1.4531 -1.795 1.2713 -1.0732 -0.35976 0.147244 -5.6954 0.21 2.1184 -0.276455 3.22035 -0.265892 -3.9766 -1.54 2.3863 7.12909 2.60652 -1.13964 -1.4042 -1.926 1.125 -5.81042 -2.22926 0.687624 -2.0956 0.66 -0.3894 6.36111e-015 0 -4.77083e-015 -5.03951 -0.0899863 2.49711 0.204396 1.33516 -4.43645 -3.7921 -1.55201 1.4806 9.1638 3.63146 -1.93667 -1.4655 -1.80801 0.960898 -3.59703 -1.51619 0.602846 -4.91411 -1.26899 0.359203 6.95468 0.747499 -12.4693 -3.1477 -1.68501 0.846198 -0.934372 -0.418529 0.153519 -0.805498 -1.585 0.795503 -3.34199 -1.50972 0.517752 8.36701 -8.2066 0.598203 9.51845 5.81324 -31.3793 2.19231 -43.463 -0.493206 0.0536982 2.64872 0.280024 0.733305 -45.8593 -2.6451 -2.75696 14.5848 -5.22307 -8.367 -8.2066 0.5982 15.2706 51.5716 -2.81191 -2.19231 -43.463 -0.493094 -2.48872 -2.58838 1.62374 -0.733283 -45.8593 -2.64511 9.91029 7.78173 -17.3904 
-39.5031 144.083 3.14629 36.8318 -2.76497 -21.8837 1.49301e-006 -1.18599 -1.5018 -5.60817 -2.74435 10.4146 2.7677e-006 9.964 0.2134 -10.6511 -6.44546 20.5592 3.89781e-008 13.134 -3.2573 -10.6512 -6.44546 20.5592 -2.14335e-006 20.686 -1.6905 3.0531 -13.7475 29.6378 6.58122e-006 7.238 -0.123714 6.73859 0.811854 14.0321 1.7069 20.075 5.0056 29.232 0.305819 16.8844 13.6458 -0.0470115 -4.849 -34.7887 -20.1875 6.5742 28.3255 -0.97589 2.2888 -43.5329 20.3456 -101.137 22.1583 -0.529989 10.8316 -68.2994 -62.7704 -38.306 0.786004 0.111997 2.5817 3.07388 2.12593 10.582 0.360096 -0.877998 4.2331 -18.7139 17.6682 -6.99775 1.8127 -1.21601 2.2227 2.22225 0.347721 4.08893 0.9571 1.114 1.7695 -3.18055e-015 3.97569e-015 -0 4.12461 0.486993 4.14511 -3.61813 3.20132 16.3937 3.4052 -1.45401 2.7682 -2.05347 0.892484 0.853167 1.4531 -1.79499 1.2713 -37.475 10.1425 18.5049 5.6954 0.209988 2.1184 -11.1934 8.01648 6.6871 3.9766 -1.53999 2.3863 -15.0213 6.32936 6.94715 1.4042 -1.926 1.12499 -11.3333 4.97918 5.1248 2.0956 0.66 -0.3894 -3.18055e-015 3.97569e-015 -0 5.0395 -0.0900118 2.4971 -10.4406 4.44978 4.77595 3.7921 -1.55199 1.48061 -14.3544 6.51538 7.46286 1.4655 -1.808 0.960899 -10.7393 5.09176 5.47537 4.9141 -1.269 0.359096 -11.2801 4.51383 3.71458 3.1477 -1.685 0.846207 -12.1888 6.12245 6.21839 0.805498 -1.58501 0.795498 -10.8857 5.55142 5.51063 -1.7069 20.075 5.0056 -28.7627 -0.462955 9.8208 -13.6458 -0.0470107 -4.849 55.3847 12.243 69.202 -28.3255 -0.975895 2.2888 20.8229 8.20221 61.3716 -22.1583 -0.530007 10.8316 39.3283 -28.739 10.8323 -0.786002 0.112002 2.58169 4.45311 13.0654 2.25884 -0.360102 -0.87799 4.23311 1.7486 -1.38263 5.14205 -1.81269 -1.216 2.2227 1.91605 -1.50213 5.61841 -0.9571 1.114 1.7695 3.18055e-015 3.18055e-015 -0 -4.1246 0.487015 4.14511 -10.9398 -1.38414 5.79289 -3.4052 -1.454 2.76821 -6.97134 -2.3868 0.837112 -1.4531 -1.795 1.2713 -1.0732 -0.359748 0.147245 -5.6954 0.210004 2.11841 -0.275225 3.21974 -0.266306 -3.9766 -1.54 2.3863 7.12907 2.60657 -1.13961 -1.4042 -1.92599 1.125 -5.81042 -2.22922 0.687655 -2.0956 0.66 -0.3894 3.18055e-015 3.18055e-015 -0 -5.03951 -0.0899891 2.4971 0.204383 1.33514 -4.43647 -3.7921 -1.552 1.4806 9.16377 3.63155 -1.93663 -1.4655 -1.808 0.960898 -3.59701 -1.5162 0.602863 -4.91411 -1.26899 0.359202 6.95464 0.747497 -12.4693 -3.1477 -1.68501 0.846195 -0.934376 -0.418485 0.153579 -0.805496 -1.58499 0.795505 -3.33931 -1.50849 0.517366 8.367 -8.2066 0.598203 9.54881 4.04332 -31.214 2.19232 -43.463 -0.493206 0.0579712 2.22543 0.291683 0.733288 -45.8593 -2.6451 -3.00922 14.6683 -4.66207 -8.367 -8.20659 0.598198 14.1387 50.8113 -1.52847 -2.19232 -43.463 -0.492952 -2.33308 -2.62658 1.55691 -0.733316 -45.8593 -2.64509 9.8442 8.6639 -16.7175 
-38.9421 144.082 4.42578 37.3212 0.92854 -15.9473 -3.79284e-006 -1.186 -1.5018 -5.77226 -3.07312 10.1617 4.53855e-006 9.964 0.2134 -10.9409 -7.10269 20.0194 3.96888e-007 13.134 -3.2573 -10.9409 -7.1027 20.0194 -1.05638e-006 20.686 -1.6905 3.10926 -12.4862 29.8112 9.94871e-006 7.238 -0.123712 6.06109 1.81251 13.8221 1.7069 20.075 5.0056 28.8273 0.234812 16.0253 13.6458 -0.0470122 -4.84899 -35.0325 -20.6463 4.5464 28.3255 -0.975904 2.28879 -43.9708 20.1456 -100.47 22.1583 -0.52999 10.8316 -70.9785 -63.0143 -39.2962 0.786004 0.111996 2.5817 3.07394 2.12604 10.582 0.360099 -0.877999 4.2331 -18.714 17.6681 -6.99772 1.8127 -1.21601 2.2227 2.22224 0.347707 4.08892 0.9571 1.114 1.7695 1.59028e-015 -1.59028e-015 -0 4.1246 0.486992 4.1451 -3.61811 3.20131 16.3937 3.4052 -1.45401 2.7682 -2.05347 0.892459 0.853167 1.4531 -1.79499 1.2713 -37.475 10.1425 18.5049 5.6954 0.209987 2.1184 -11.1934 8.01662 6.68713 3.9766 -1.53999 2.3863 -15.0213 6.32933 6.94715 1.4042 -1.926 1.125 -11.3333 4.97937 5.1247 2.0956 0.66 -0.3894 1.59028e-015 -1.59028e-015 -0 5.0395 -0.0900133 2.4971 -10.4406 4.44977 4.77594 3.7921 -1.55199 1.4806 -14.3544 6.51536 7.46288 1.4655 -1.808 0.960901 -10.7393 5.09186 5.47529 4.9141 -1.269 0.359101 -11.2801 4.51374 3.71453 3.1477 -1.685 0.846197 -12.1888 6.12243 6.2184 0.805498 -1.58501 0.795497 -10.8858 5.55136 5.51057 -1.7069 20.075 5.0056 -29.8029 -0.379893 8.83707 -13.6458 -0.04702 -4.84901 53.5702 7.66206 71.204 -28.3255 -0.975891 2.2888 17.406 0.204036 61.0034 -22.1583 -0.530004 10.8316 41.7451 -38.4954 16.5536 -0.786002 0.112003 2.58169 4.44713 13.0723 2.26428 -0.360107 -0.877996 4.2331 1.74895 -1.38288 5.14305 -1.81269 -1.216 2.2227 1.91605 -1.50215 5.6184 -0.9571 1.114 1.7695 3.18055e-015 0 3.18055e-015 -4.1246 0.487011 4.1451 -10.9399 -1.38411 5.79289 -3.4052 -1.454 2.76821 -6.97134 -2.38679 0.837127 -1.4531 -1.795 1.2713 -1.0732 -0.359735 0.14725 -5.6954 0.209999 2.1184 -0.273993 3.21914 -0.266727 -3.9766 -1.54 2.38629 7.12906 2.60665 -1.13959 -1.4042 -1.926 1.125 -5.81043 -2.22919 0.687681 -2.0956 0.66 -0.3894 3.18055e-015 0 3.18055e-015 -5.03951 -0.0899897 2.4971 0.204365 1.33515 -4.43649 -3.7921 -1.55201 1.48059 9.16376 3.63161 -1.93659 -1.4655 -1.80801 0.960898 -3.59702 -1.51619 0.60288 -4.91411 -1.26899 0.359196 6.95462 0.747513 -12.4693 -3.1477 -1.68501 0.846192 -0.934404 -0.418412 0.153579 -0.805498 -1.58499 0.795504 -3.33663 -1.50727 0.516997 8.36701 -8.2066 0.598199 9.60776 3.40115 -30.9933 2.19229 -43.4631 -0.493195 0.0571702 1.73623 0.267802 0.733309 -45.8593 -2.64511 -2.66934 14.6861 -4.61444 -8.367 -8.2066 0.598199 12.5043 51.3116 0.0812838 -2.19229 -43.463 -0.493153 -2.16811 -2.67399 1.34292 -0.733282 -45.8593 -2.64512 7.93363 9.47042 -16.0221 
